<?xml version="1.0" encoding="iso-8859-1"?>
<!-- Generator: Adobe Illustrator 18.1.1, SVG Export Plug-In . SVG Version: 6.00 Build 0)  -->
<svg version="1.1" id="Capa_1" xmlns="http://www.w3.org/2000/svg" xmlns:xlink="http://www.w3.org/1999/xlink" x="0px" y="0px"
	 viewBox="0 0 441.747 441.747" style="enable-background:new 0 0 441.747 441.747;" xml:space="preserve">
<g>
	<g>
		<path style="fill:#010002;" d="M398.967,188.611c0.016-0.756,0.024-1.504,0.024-2.243c0-61.615-50.129-111.744-111.752-111.744
			c-10.242,0-20.346,1.382-30.116,4.121c-17.306-26.58-46.967-42.829-78.92-42.829c-37.782,0-71.093,21.825-86.13,55.99
			C39.261,101.091,0,147.318,0,201.333c0,33.417,15.306,65.329,41.171,86.325c-0.341,2.878-0.512,5.755-0.512,8.592
			c0,41.83,34.034,75.872,75.864,75.872c8.421,0,16.948-1.455,24.955-4.235c26.361,24.174,61.428,37.944,97.039,37.944
			c52.137,0,99.567-27.914,125.058-73.198c42.829,1.496,78.172-33.246,78.172-75.823
			C441.747,227.872,424.775,201.186,398.967,188.611z M359.706,316.108l-5.511-0.553l-2.536,4.918
			c-21.646,41.984-66.061,69.109-113.15,69.109c-33.124,0-65.728-13.453-89.447-36.904l-3.894-3.861l-5.032,2.178
			c-7.405,3.195-15.574,4.877-23.613,4.877c-32.872,0-59.607-26.743-59.607-59.615c0-3.479,0.333-7.047,1-10.608l0.927-4.999
			l-4.081-3.016c-24.101-17.826-38.497-46.349-38.497-76.295c0-47.479,35.522-87.902,82.627-94.023l4.812-0.626l1.731-4.536
			c11.608-30.36,40.171-49.974,72.775-49.974c28.287,0,54.396,15.396,68.15,40.18l3.308,5.966l6.454-2.227
			c9.99-3.455,20.468-5.21,31.124-5.21c52.657,0,95.494,42.838,95.494,95.486c0,2.17-0.089,4.381-0.285,6.73l-0.52,6.048
			l5.657,2.211c22.671,8.876,37.904,31.157,37.904,55.461C425.49,291.706,395.284,319.782,359.706,316.108z"/>
		<path style="fill:#010002;" d="M209.075,205.243c1.292,0.788,2.756,1.187,4.227,1.187c1.284,0,2.56-0.301,3.739-0.91
			l62.444-32.384c2.747-1.423,4.446-4.268,4.389-7.356c-0.057-3.089-1.853-5.877-4.633-7.202l-62.444-29.694
			c-2.528-1.187-5.462-1.024-7.836,0.471c-2.357,1.488-3.788,4.081-3.788,6.869v20.013c-39.822,1.853-71.678,34.701-71.678,74.97
			c0,41.464,33.725,75.189,75.189,75.189c41.472,0,75.189-33.725,75.189-75.189c0-4.503-3.633-8.145-8.129-8.145
			c-4.495,0-8.129,3.642-8.129,8.129c0,32.498-26.434,58.932-58.932,58.932s-58.932-26.434-58.932-58.932
			c0-31.303,24.573-56.867,55.421-58.696v25.8C205.165,201.138,206.645,203.771,209.075,205.243z M221.422,149.09l30.23,14.379
			l5.82,2.764l-11.754,6.096l-24.288,12.591V149.09H221.422z"/>
	</g>
</g>
<g>
</g>
<g>
</g>
<g>
</g>
<g>
</g>
<g>
</g>
<g>
</g>
<g>
</g>
<g>
</g>
<g>
</g>
<g>
</g>
<g>
</g>
<g>
</g>
<g>
</g>
<g>
</g>
<g>
</g>
</svg>
