<svg width="48" height="48" viewBox="0 0 48 48" fill="none" xmlns="http://www.w3.org/2000/svg">
<path fill-rule="evenodd" clip-rule="evenodd" d="M4.80001 9.59998C3.91636 9.59998 3.20001 10.3163 3.20001 11.2C3.20001 12.0836 3.91636 12.8 4.80001 12.8H43.2C44.0835 12.8 44.8 12.0836 44.8 11.2C44.8 10.3163 44.0835 9.59998 43.2 9.59998H4.80001ZM3.20001 24C3.20001 23.1163 3.91636 22.4 4.80001 22.4H43.2C44.0835 22.4 44.8 23.1163 44.8 24C44.8 24.8836 44.0835 25.6 43.2 25.6H4.80001C3.91636 25.6 3.20001 24.8836 3.20001 24ZM3.20001 36.8C3.20001 35.9165 3.91636 35.2 4.80001 35.2H43.2C44.0835 35.2 44.8 35.9165 44.8 36.8C44.8 37.6835 44.0835 38.4 43.2 38.4H4.80001C3.91636 38.4 3.20001 37.6835 3.20001 36.8Z" fill="#4D1E1E"/>
</svg>
