<svg width="250" height="250" viewBox="0 0 250 250" fill="none" xmlns="http://www.w3.org/2000/svg">
<path d="M123.714 34.9164L158.449 69.6515L157.522 71.0991H123.714V34.9164Z" fill="#FFD248"/>
<path d="M89.6316 71.0991L88.7051 69.6515L123.577 34.7797L123.714 34.9164V71.0991H89.6316Z" fill="#F4661E"/>
<path d="M89.6316 71.0991H123.714L123.714 123.913L123.577 124.127L89.6316 71.0991Z" fill="#FFD248"/>
<path d="M157.522 71.0991L123.714 123.913L123.714 71.0991H157.522Z" fill="#F4661E"/>
<path d="M164.572 214.68C166.613 213.858 168.933 214.848 169.755 216.889L170.816 219.528C171.637 221.569 170.648 223.889 168.606 224.711C168.119 224.907 167.616 225 167.121 225C165.543 225 164.049 224.055 163.424 222.501L162.362 219.863C161.541 217.821 162.53 215.5 164.572 214.68Z" fill="#4D1E1E"/>
<path d="M81.9848 67.1152H85.6336C85.7137 67.0187 85.7973 66.9241 85.8875 66.8343L119.729 32.9926V28.984C119.729 26.784 121.513 25 123.713 25C125.914 25 127.697 26.784 127.697 28.984V33.2656L161.265 66.8343C161.355 66.9241 161.44 67.0187 161.519 67.1152H164.283C166.483 67.1152 168.267 68.8991 168.267 71.0991C168.267 73.2991 166.483 75.0831 164.283 75.0831H159.701L127.401 125.542L129.45 139.452C131.391 152.62 137.353 164.593 146.694 174.077C153.246 180.73 158.335 188.496 161.819 197.16L165.66 206.709C166.481 208.751 165.492 211.071 163.45 211.892C162.963 212.088 162.46 212.181 161.965 212.181C160.387 212.181 158.892 211.237 158.267 209.683L154.427 200.133C151.338 192.452 146.826 185.566 141.017 179.668C130.482 168.971 123.757 155.467 121.568 140.614L119.446 126.215C119.388 125.824 119.392 125.437 119.446 125.064L87.4508 75.0827H81.984C79.7836 75.0827 78 73.2987 78 71.0987C77.9992 68.8991 79.7844 67.1152 81.9848 67.1152ZM119.729 44.2617L96.8754 67.1152H119.729V44.2617ZM127.698 44.5343V67.1152H150.278L127.698 44.5343ZM127.698 75.0831V110.3L150.241 75.0831H127.698ZM119.729 110.727V75.0831H96.9125L119.729 110.727Z" fill="#4D1E1E"/>
</svg>
