<svg width="368" height="266" viewBox="0 0 368 266" fill="none" xmlns="http://www.w3.org/2000/svg">
<path d="M272.05 132.604C266.08 120.989 249.21 110.094 221.91 100.224C206.064 94.4949 191.105 90.7674 185.562 89.4635L167.9 2.83662C167.52 0.967441 165.727 -0.26324 163.845 0.0482112L111.094 8.8265C109.755 9.04957 108.661 10.018 108.277 11.32L93.1456 62.6111C92.6059 64.4411 93.6107 66.3698 95.4198 66.9752L181.42 95.7695C181.48 95.7899 200.1 99.8699 219.573 106.916C244.733 116.021 260.7 126.025 265.747 135.846C267.844 139.928 267.996 143.922 266.209 148.054C263.872 153.459 257.931 155.505 249.829 155.505C236.919 155.504 218.527 150.306 200.514 145.215C183.495 140.404 165.896 135.43 151.592 134.392C134.093 133.121 123.63 137.969 119.614 149.214C116.448 158.081 117.407 166.169 122.466 173.256C132.428 187.209 158.439 196.777 199.778 201.694C225.635 204.769 249.741 205 256.372 205C257.499 205 258.123 204.993 258.163 204.993C260.12 204.969 261.687 203.363 261.663 201.405C261.639 199.448 260.036 197.865 258.076 197.904C257.804 197.908 230.345 198.196 200.544 194.646C161.863 190.038 136.859 181.217 128.235 169.136C124.554 163.979 123.917 158.242 126.29 151.599C132.776 133.437 166.232 142.893 198.586 152.038C214.948 156.662 230.402 161.031 243.325 162.257C249.137 162.809 266.825 164.489 272.715 150.868C275.36 144.752 275.136 138.608 272.05 132.604ZM176.427 80.1469L135.49 33.8848L162.18 10.2661L176.427 80.1469ZM171.119 84.8447L103.49 62.2014L130.18 38.5826L171.119 84.8447ZM130.792 28.576L118.574 14.7686L152.839 9.06659L130.792 28.576ZM113.265 19.4664L125.483 33.2738L103.436 52.7832L113.265 19.4664Z" fill="black"/>
<path d="M6.048 235.908C6.696 234.78 7.656 233.844 8.928 233.1C10.224 232.332 11.724 231.948 13.428 231.948C15.18 231.948 16.764 232.368 18.18 233.208C19.62 234.048 20.748 235.236 21.564 236.772C22.38 238.284 22.788 240.048 22.788 242.064C22.788 244.056 22.38 245.832 21.564 247.392C20.748 248.952 19.62 250.164 18.18 251.028C16.764 251.892 15.18 252.324 13.428 252.324C11.748 252.324 10.26 251.952 8.964 251.208C7.692 250.44 6.72 249.492 6.048 248.364V261.36H2.772V232.272H6.048V235.908ZM19.44 242.064C19.44 240.576 19.14 239.28 18.54 238.176C17.94 237.072 17.124 236.232 16.092 235.656C15.084 235.08 13.968 234.792 12.744 234.792C11.544 234.792 10.428 235.092 9.396 235.692C8.388 236.268 7.572 237.12 6.948 238.248C6.348 239.352 6.048 240.636 6.048 242.1C6.048 243.588 6.348 244.896 6.948 246.024C7.572 247.128 8.388 247.98 9.396 248.58C10.428 249.156 11.544 249.444 12.744 249.444C13.968 249.444 15.084 249.156 16.092 248.58C17.124 247.98 17.94 247.128 18.54 246.024C19.14 244.896 19.44 243.576 19.44 242.064ZM31.2761 242.064C31.2761 240.048 31.6841 238.284 32.5001 236.772C33.3161 235.236 34.4321 234.048 35.8481 233.208C37.2881 232.368 38.8841 231.948 40.6361 231.948C42.3641 231.948 43.8641 232.32 45.1361 233.064C46.4081 233.808 47.3561 234.744 47.9801 235.872V232.272H51.2921V252H47.9801V248.328C47.3321 249.48 46.3601 250.44 45.0641 251.208C43.7921 251.952 42.3041 252.324 40.6001 252.324C38.8481 252.324 37.2641 251.892 35.8481 251.028C34.4321 250.164 33.3161 248.952 32.5001 247.392C31.6841 245.832 31.2761 244.056 31.2761 242.064ZM47.9801 242.1C47.9801 240.612 47.6801 239.316 47.0801 238.212C46.4801 237.108 45.6641 236.268 44.6321 235.692C43.6241 235.092 42.5081 234.792 41.2841 234.792C40.0601 234.792 38.9441 235.08 37.9361 235.656C36.9281 236.232 36.1241 237.072 35.5241 238.176C34.9241 239.28 34.6241 240.576 34.6241 242.064C34.6241 243.576 34.9241 244.896 35.5241 246.024C36.1241 247.128 36.9281 247.98 37.9361 248.58C38.9441 249.156 40.0601 249.444 41.2841 249.444C42.5081 249.444 43.6241 249.156 44.6321 248.58C45.6641 247.98 46.4801 247.128 47.0801 246.024C47.6801 244.896 47.9801 243.588 47.9801 242.1ZM65.5042 235.908C66.1522 234.78 67.1122 233.844 68.3842 233.1C69.6802 232.332 71.1802 231.948 72.8843 231.948C74.6362 231.948 76.2202 232.368 77.6362 233.208C79.0762 234.048 80.2042 235.236 81.0203 236.772C81.8363 238.284 82.2442 240.048 82.2442 242.064C82.2442 244.056 81.8363 245.832 81.0203 247.392C80.2042 248.952 79.0762 250.164 77.6362 251.028C76.2202 251.892 74.6362 252.324 72.8843 252.324C71.2042 252.324 69.7162 251.952 68.4202 251.208C67.1482 250.44 66.1762 249.492 65.5042 248.364V261.36H62.2282V232.272H65.5042V235.908ZM78.8963 242.064C78.8963 240.576 78.5963 239.28 77.9963 238.176C77.3963 237.072 76.5802 236.232 75.5483 235.656C74.5403 235.08 73.4243 234.792 72.2002 234.792C71.0002 234.792 69.8842 235.092 68.8522 235.692C67.8442 236.268 67.0282 237.12 66.4042 238.248C65.8042 239.352 65.5042 240.636 65.5042 242.1C65.5042 243.588 65.8042 244.896 66.4042 246.024C67.0282 247.128 67.8442 247.98 68.8522 248.58C69.8842 249.156 71.0002 249.444 72.2002 249.444C73.4243 249.444 74.5403 249.156 75.5483 248.58C76.5802 247.98 77.3963 247.128 77.9963 246.024C78.5963 244.896 78.8963 243.576 78.8963 242.064ZM93.6484 229.068C93.0244 229.068 92.4964 228.852 92.0644 228.42C91.6324 227.988 91.4164 227.46 91.4164 226.836C91.4164 226.212 91.6324 225.684 92.0644 225.252C92.4964 224.82 93.0244 224.604 93.6484 224.604C94.2484 224.604 94.7524 224.82 95.1604 225.252C95.5924 225.684 95.8084 226.212 95.8084 226.836C95.8084 227.46 95.5924 227.988 95.1604 228.42C94.7524 228.852 94.2484 229.068 93.6484 229.068ZM95.2324 232.272V252H91.9564V232.272H95.2324ZM109.492 235.476C110.068 234.348 110.884 233.472 111.94 232.848C113.02 232.224 114.328 231.912 115.864 231.912V235.296H115C111.328 235.296 109.492 237.288 109.492 241.272V252H106.216V232.272H109.492V235.476ZM132.029 252.324C130.517 252.324 129.161 252.072 127.961 251.568C126.761 251.04 125.813 250.32 125.117 249.408C124.421 248.472 124.037 247.404 123.965 246.204H127.349C127.445 247.188 127.901 247.992 128.717 248.616C129.557 249.24 130.649 249.552 131.993 249.552C133.241 249.552 134.225 249.276 134.945 248.724C135.665 248.172 136.025 247.476 136.025 246.636C136.025 245.772 135.641 245.136 134.873 244.728C134.105 244.296 132.917 243.876 131.309 243.468C129.845 243.084 128.645 242.7 127.709 242.316C126.797 241.908 126.005 241.32 125.333 240.552C124.685 239.76 124.361 238.728 124.361 237.456C124.361 236.448 124.661 235.524 125.261 234.684C125.861 233.844 126.713 233.184 127.817 232.704C128.921 232.2 130.181 231.948 131.597 231.948C133.781 231.948 135.545 232.5 136.889 233.604C138.233 234.708 138.953 236.22 139.049 238.14H135.773C135.701 237.108 135.281 236.28 134.513 235.656C133.769 235.032 132.761 234.72 131.489 234.72C130.313 234.72 129.377 234.972 128.681 235.476C127.985 235.98 127.637 236.64 127.637 237.456C127.637 238.104 127.841 238.644 128.249 239.076C128.681 239.484 129.209 239.82 129.833 240.084C130.481 240.324 131.369 240.6 132.497 240.912C133.913 241.296 135.065 241.68 135.953 242.064C136.841 242.424 137.597 242.976 138.221 243.72C138.869 244.464 139.205 245.436 139.229 246.636C139.229 247.716 138.929 248.688 138.329 249.552C137.729 250.416 136.877 251.1 135.773 251.604C134.693 252.084 133.445 252.324 132.029 252.324ZM148.03 242.064C148.03 240.048 148.438 238.284 149.254 236.772C150.07 235.236 151.186 234.048 152.602 233.208C154.042 232.368 155.638 231.948 157.39 231.948C159.118 231.948 160.618 232.32 161.89 233.064C163.162 233.808 164.11 234.744 164.734 235.872V232.272H168.046V252H164.734V248.328C164.086 249.48 163.114 250.44 161.818 251.208C160.546 251.952 159.058 252.324 157.354 252.324C155.602 252.324 154.018 251.892 152.602 251.028C151.186 250.164 150.07 248.952 149.254 247.392C148.438 245.832 148.03 244.056 148.03 242.064ZM164.734 242.1C164.734 240.612 164.434 239.316 163.834 238.212C163.234 237.108 162.418 236.268 161.386 235.692C160.378 235.092 159.262 234.792 158.038 234.792C156.814 234.792 155.698 235.08 154.69 235.656C153.682 236.232 152.878 237.072 152.278 238.176C151.678 239.28 151.378 240.576 151.378 242.064C151.378 243.576 151.678 244.896 152.278 246.024C152.878 247.128 153.682 247.98 154.69 248.58C155.698 249.156 156.814 249.444 158.038 249.444C159.262 249.444 160.378 249.156 161.386 248.58C162.418 247.98 163.234 247.128 163.834 246.024C164.434 244.896 164.734 243.588 164.734 242.1ZM182.258 235.476C182.834 234.348 183.65 233.472 184.706 232.848C185.786 232.224 187.094 231.912 188.63 231.912V235.296H187.766C184.094 235.296 182.258 237.288 182.258 241.272V252H178.982V232.272H182.258V235.476ZM208.828 252L201.088 243.288V252H197.812V225.36H201.088V241.02L208.684 232.272H213.256L203.968 242.1L213.292 252H208.828ZM220.515 242.064C220.515 240.048 220.923 238.284 221.739 236.772C222.555 235.236 223.671 234.048 225.087 233.208C226.527 232.368 228.123 231.948 229.875 231.948C231.603 231.948 233.103 232.32 234.375 233.064C235.647 233.808 236.595 234.744 237.219 235.872V232.272H240.531V252H237.219V248.328C236.571 249.48 235.599 250.44 234.303 251.208C233.031 251.952 231.543 252.324 229.839 252.324C228.087 252.324 226.503 251.892 225.087 251.028C223.671 250.164 222.555 248.952 221.739 247.392C220.923 245.832 220.515 244.056 220.515 242.064ZM237.219 242.1C237.219 240.612 236.919 239.316 236.319 238.212C235.719 237.108 234.903 236.268 233.871 235.692C232.863 235.092 231.747 234.792 230.523 234.792C229.299 234.792 228.183 235.08 227.175 235.656C226.167 236.232 225.363 237.072 224.763 238.176C224.163 239.28 223.863 240.576 223.863 242.064C223.863 243.576 224.163 244.896 224.763 246.024C225.363 247.128 226.167 247.98 227.175 248.58C228.183 249.156 229.299 249.444 230.523 249.444C231.747 249.444 232.863 249.156 233.871 248.58C234.903 247.98 235.719 247.128 236.319 246.024C236.919 244.896 237.219 243.588 237.219 242.1ZM261.079 231.912C263.479 231.912 265.423 232.644 266.911 234.108C268.399 235.548 269.143 237.636 269.143 240.372V252H265.903V240.84C265.903 238.872 265.411 237.372 264.427 236.34C263.443 235.284 262.099 234.756 260.395 234.756C258.667 234.756 257.287 235.296 256.255 236.376C255.247 237.456 254.743 239.028 254.743 241.092V252H251.467V232.272H254.743V235.08C255.391 234.072 256.267 233.292 257.371 232.74C258.499 232.188 259.735 231.912 261.079 231.912ZM296.887 232.272L285.007 261.288H281.623L285.511 251.784L277.555 232.272H281.191L287.383 248.256L293.503 232.272H296.887ZM306.624 252.216C306 252.216 305.472 252 305.04 251.568C304.608 251.136 304.392 250.608 304.392 249.984C304.392 249.36 304.608 248.832 305.04 248.4C305.472 247.968 306 247.752 306.624 247.752C307.224 247.752 307.728 247.968 308.136 248.4C308.568 248.832 308.784 249.36 308.784 249.984C308.784 250.608 308.568 251.136 308.136 251.568C307.728 252 307.224 252.216 306.624 252.216ZM328.33 231.912C329.818 231.912 331.162 232.236 332.362 232.884C333.562 233.508 334.498 234.456 335.17 235.728C335.866 237 336.214 238.548 336.214 240.372V252H332.974V240.84C332.974 238.872 332.482 237.372 331.498 236.34C330.514 235.284 329.17 234.756 327.466 234.756C325.738 234.756 324.358 235.296 323.326 236.376C322.318 237.456 321.814 239.028 321.814 241.092V252H318.538V225.36H321.814V235.08C322.462 234.072 323.35 233.292 324.478 232.74C325.63 232.188 326.914 231.912 328.33 231.912ZM364.462 232.272V252H361.186V249.084C360.562 250.092 359.686 250.884 358.558 251.46C357.454 252.012 356.23 252.288 354.886 252.288C353.35 252.288 351.97 251.976 350.746 251.352C349.522 250.704 348.55 249.744 347.83 248.472C347.134 247.2 346.786 245.652 346.786 243.828V232.272H350.026V243.396C350.026 245.34 350.518 246.84 351.502 247.896C352.486 248.928 353.83 249.444 355.534 249.444C357.286 249.444 358.666 248.904 359.674 247.824C360.682 246.744 361.186 245.172 361.186 243.108V232.272H364.462Z" fill="black"/>
</svg>
